<svg width="320" height="278" viewBox="0 0 320 278" fill="none" xmlns="http://www.w3.org/2000/svg">
  <rect width="320" height="278" fill="#F4F4F4"/>
  <g stroke="#D9D9D9" stroke-width="1">
    <path d="M13.5 0.5L26.5 8V23L13.5 30.5L0.5 23V8L13.5 0.5Z"/>
    <path d="M40.5 0.5L53.5 8V23L40.5 30.5L27.5 23V8L40.5 0.5Z"/>
    <path d="M67.5 0.5L80.5 8V23L67.5 30.5L54.5 23V8L67.5 0.5Z"/>
    <path d="M94.5 0.5L107.5 8V23L94.5 30.5L81.5 23V8L94.5 0.5Z"/>
    <path d="M121.5 0.5L134.5 8V23L121.5 30.5L108.5 23V8L121.5 0.5Z"/>
    <path d="M148.5 0.5L161.5 8V23L148.5 30.5L135.5 23V8L148.5 0.5Z"/>
    <path d="M175.5 0.5L188.5 8V23L175.5 30.5L162.5 23V8L175.5 0.5Z"/>
    <path d="M202.5 0.5L215.5 8V23L202.5 30.5L189.5 23V8L202.5 0.5Z"/>
    <path d="M229.5 0.5L242.5 8V23L229.5 30.5L216.5 23V8L229.5 0.5Z"/>
    <path d="M256.5 0.5L269.5 8V23L256.5 30.5L243.5 23V8L256.5 0.5Z"/>
    <path d="M283.5 0.5L296.5 8V23L283.5 30.5L270.5 23V8L283.5 0.5Z"/>
    <path d="M310.5 0.5L323.5 8V23L310.5 30.5L297.5 23V8L310.5 0.5Z"/>

    <path d="M0 31.5H13.5L27 39V54L13.5 61.5H0"/>
    <path d="M27.5 31.5L40.5 39V54L27.5 61.5L14.5 54V39L27.5 31.5Z"/>
    <path d="M54.5 31.5L67.5 39V54L54.5 61.5L41.5 54V39L54.5 31.5Z"/>
    <path d="M81.5 31.5L94.5 39V54L81.5 61.5L68.5 54V39L81.5 31.5Z"/>
    <path d="M108.5 31.5L121.5 39V54L108.5 61.5L95.5 54V39L108.5 31.5Z"/>
    <path d="M135.5 31.5L148.5 39V54L135.5 61.5L122.5 54V39L135.5 31.5Z"/>
    <path d="M162.5 31.5L175.5 39V54L162.5 61.5L149.5 54V39L162.5 31.5Z"/>
    <path d="M189.5 31.5L202.5 39V54L189.5 61.5L176.5 54V39L189.5 31.5Z"/>
    <path d="M216.5 31.5L229.5 39V54L216.5 61.5L203.5 54V39L216.5 31.5Z"/>
    <path d="M243.5 31.5L256.5 39V54L243.5 61.5L230.5 54V39L243.5 31.5Z"/>
    <path d="M270.5 31.5L283.5 39V54L270.5 61.5L257.5 54V39L270.5 31.5Z"/>
    <path d="M297.5 31.5L310.5 39V54L297.5 61.5L284.5 54V39L297.5 31.5Z"/>

    <path d="M13.5 62.5L26.5 70V85L13.5 92.5L0.5 85V70L13.5 62.5Z"/>
    <path d="M40.5 62.5L53.5 70V85L40.5 92.5L27.5 85V70L40.5 62.5Z"/>
    <path d="M67.5 62.5L80.5 70V85L67.5 92.5L54.5 85V70L67.5 62.5Z"/>
    <path d="M94.5 62.5L107.5 70V85L94.5 92.5L81.5 85V70L94.5 62.5Z"/>
    <path d="M121.5 62.5L134.5 70V85L121.5 92.5L108.5 85V70L121.5 62.5Z"/>
    <path d="M148.5 62.5L161.5 70V85L148.5 92.5L135.5 85V70L148.5 62.5Z"/>
    <path d="M175.5 62.5L188.5 70V85L175.5 92.5L162.5 85V70L175.5 62.5Z"/>
    <path d="M202.5 62.5L215.5 70V85L202.5 92.5L189.5 85V70L202.5 62.5Z"/>
    <path d="M229.5 62.5L242.5 70V85L229.5 92.5L216.5 85V70L229.5 62.5Z"/>
    <path d="M256.5 62.5L269.5 70V85L256.5 92.5L243.5 85V70L256.5 62.5Z"/>
    <path d="M283.5 62.5L296.5 70V85L283.5 92.5L270.5 85V70L283.5 62.5Z"/>
    <path d="M310.5 62.5L323.5 70V85L310.5 92.5L297.5 85V70L310.5 62.5Z"/>

    <path d="M0 93.5H13.5L27 101V116L13.5 123.5H0"/>
    <path d="M27.5 93.5L40.5 101V116L27.5 123.5L14.5 116V101L27.5 93.5Z"/>
    <path d="M54.5 93.5L67.5 101V116L54.5 123.5L41.5 116V101L54.5 93.5Z"/>
    <path d="M81.5 93.5L94.5 101V116L81.5 123.5L68.5 116V101L81.5 93.5Z"/>
    <path d="M108.5 93.5L121.5 101V116L108.5 123.5L95.5 116V101L108.5 93.5Z"/>
    <path d="M135.5 93.5L148.5 101V116L135.5 123.5L122.5 116V101L135.5 93.5Z"/>
    <path d="M162.5 93.5L175.5 101V116L162.5 123.5L149.5 116V101L162.5 93.5Z"/>
    <path d="M189.5 93.5L202.5 101V116L189.5 123.5L176.5 116V101L189.5 93.5Z"/>
    <path d="M216.5 93.5L229.5 101V116L216.5 123.5L203.5 116V101L216.5 93.5Z"/>
    <path d="M243.5 93.5L256.5 101V116L243.5 123.5L230.5 116V101L243.5 93.5Z"/>
    <path d="M270.5 93.5L283.5 101V116L270.5 123.5L257.5 116V101L270.5 93.5Z"/>
    <path d="M297.5 93.5L310.5 101V116L297.5 123.5L284.5 116V101L297.5 93.5Z"/>

    <path d="M13.5 124.5L26.5 132V147L13.5 154.5L0.5 147V132L13.5 124.5Z"/>
    <path d="M40.5 124.5L53.5 132V147L40.5 154.5L27.5 147V132L40.5 124.5Z"/>
    <path d="M67.5 124.5L80.5 132V147L67.5 154.5L54.5 147V132L67.5 124.5Z"/>
    <path d="M94.5 124.5L107.5 132V147L94.5 154.5L81.5 147V132L94.5 124.5Z"/>
    <path d="M121.5 124.5L134.5 132V147L121.5 154.5L108.5 147V132L121.5 124.5Z"/>
    <path d="M148.5 124.5L161.5 132V147L148.5 154.5L135.5 147V132L148.5 124.5Z"/>
    <path d="M175.5 124.5L188.5 132V147L175.5 154.5L162.5 147V132L175.5 124.5Z"/>
    <path d="M202.5 124.5L215.5 132V147L202.5 154.5L189.5 147V132L202.5 124.5Z"/>
    <path d="M229.5 124.5L242.5 132V147L229.5 154.5L216.5 147V132L229.5 124.5Z"/>
    <path d="M256.5 124.5L269.5 132V147L256.5 154.5L243.5 147V132L256.5 124.5Z"/>
    <path d="M283.5 124.5L296.5 132V147L283.5 154.5L270.5 147V132L283.5 124.5Z"/>
    <path d="M310.5 124.5L323.5 132V147L310.5 154.5L297.5 147V132L310.5 124.5Z"/>

    <path d="M0 155.5H13.5L27 163V178L13.5 185.5H0"/>
    <path d="M27.5 155.5L40.5 163V178L27.5 185.5L14.5 178V163L27.5 155.5Z"/>
    <path d="M54.5 155.5L67.5 163V178L54.5 185.5L41.5 178V163L54.5 155.5Z"/>
    <path d="M81.5 155.5L94.5 163V178L81.5 185.5L68.5 178V163L81.5 155.5Z"/>
    <path d="M108.5 155.5L121.5 163V178L108.5 185.5L95.5 178V163L108.5 155.5Z"/>
    <path d="M135.5 155.5L148.5 163V178L135.5 185.5L122.5 178V163L135.5 155.5Z"/>
    <path d="M162.5 155.5L175.5 163V178L162.5 185.5L149.5 178V163L162.5 155.5Z"/>
    <path d="M189.5 155.5L202.5 163V178L189.5 185.5L176.5 178V163L189.5 155.5Z"/>
    <path d="M216.5 155.5L229.5 163V178L216.5 185.5L203.5 178V163L216.5 155.5Z"/>
    <path d="M243.5 155.5L256.5 163V178L243.5 185.5L230.5 178V163L243.5 155.5Z"/>
    <path d="M270.5 155.5L283.5 163V178L270.5 185.5L257.5 178V163L270.5 155.5Z"/>
    <path d="M297.5 155.5L310.5 163V178L297.5 185.5L284.5 178V163L297.5 155.5Z"/>

    <path d="M13.5 186.5L26.5 194V209L13.5 216.5L0.5 209V194L13.5 186.5Z"/>
    <path d="M40.5 186.5L53.5 194V209L40.5 216.5L27.5 209V194L40.5 186.5Z"/>
    <path d="M67.5 186.5L80.5 194V209L67.5 216.5L54.5 209V194L67.5 186.5Z"/>
    <path d="M94.5 186.5L107.5 194V209L94.5 216.5L81.5 209V194L94.5 186.5Z"/>
    <path d="M121.5 186.5L134.5 194V209L121.5 216.5L108.5 209V194L121.5 186.5Z"/>
    <path d="M148.5 186.5L161.5 194V209L148.5 216.5L135.5 209V194L148.5 186.5Z"/>
    <path d="M175.5 186.5L188.5 194V209L175.5 216.5L162.5 209V194L175.5 186.5Z"/>
    <path d="M202.5 186.5L215.5 194V209L202.5 216.5L189.5 209V194L202.5 186.5Z"/>
    <path d="M229.5 186.5L242.5 194V209L229.5 216.5L216.5 209V194L229.5 186.5Z"/>
    <path d="M256.5 186.5L269.5 194V209L256.5 216.5L243.5 209V194L256.5 186.5Z"/>
    <path d="M283.5 186.5L296.5 194V209L283.5 216.5L270.5 209V194L283.5 186.5Z"/>
    <path d="M310.5 186.5L323.5 194V209L310.5 216.5L297.5 209V194L310.5 186.5Z"/>

    <path d="M0 217.5H13.5L27 225V240L13.5 247.5H0"/>
    <path d="M27.5 217.5L40.5 225V240L27.5 247.5L14.5 240V225L27.5 217.5Z"/>
    <path d="M54.5 217.5L67.5 225V240L54.5 247.5L41.5 240V225L54.5 217.5Z"/>
    <path d="M81.5 217.5L94.5 225V240L81.5 247.5L68.5 240V225L81.5 217.5Z"/>
    <path d="M108.5 217.5L121.5 225V240L108.5 247.5L95.5 240V225L108.5 217.5Z"/>
    <path d="M135.5 217.5L148.5 225V240L135.5 247.5L122.5 240V225L135.5 217.5Z"/>
    <path d="M162.5 217.5L175.5 225V240L162.5 247.5L149.5 240V225L162.5 217.5Z"/>
    <path d="M189.5 217.5L202.5 225V240L189.5 247.5L176.5 240V225L189.5 217.5Z"/>
    <path d="M216.5 217.5L229.5 225V240L216.5 247.5L203.5 240V225L216.5 217.5Z"/>
    <path d="M243.5 217.5L256.5 225V240L243.5 247.5L230.5 240V225L243.5 217.5Z"/>
    <path d="M270.5 217.5L283.5 225V240L270.5 247.5L257.5 240V225L270.5 217.5Z"/>
    <path d="M297.5 217.5L310.5 225V240L297.5 247.5L284.5 240V225L297.5 217.5Z"/>

    <path d="M13.5 248.5L26.5 256V271L13.5 278.5L0.5 271V256L13.5 248.5Z"/>
    <path d="M40.5 248.5L53.5 256V271L40.5 278.5L27.5 271V256L40.5 248.5Z"/>
    <path d="M67.5 248.5L80.5 256V271L67.5 278.5L54.5 271V256L67.5 248.5Z"/>
    <path d="M94.5 248.5L107.5 256V271L94.5 278.5L81.5 271V256L94.5 248.5Z"/>
    <path d="M121.5 248.5L134.5 256V271L121.5 278.5L108.5 271V256L121.5 248.5Z"/>
    <path d="M148.5 248.5L161.5 256V271L148.5 278.5L135.5 271V256L148.5 248.5Z"/>
    <path d="M175.5 248.5L188.5 256V271L175.5 278.5L162.5 271V256L175.5 248.5Z"/>
    <path d="M202.5 248.5L215.5 256V271L202.5 278.5L189.5 271V256L202.5 248.5Z"/>
    <path d="M229.5 248.5L242.5 256V271L229.5 278.5L216.5 271V256L229.5 248.5Z"/>
    <path d="M256.5 248.5L269.5 256V271L256.5 278.5L243.5 271V256L256.5 248.5Z"/>
    <path d="M283.5 248.5L296.5 256V271L283.5 278.5L270.5 271V256L283.5 248.5Z"/>
    <path d="M310.5 248.5L323.5 256V271L310.5 278.5L297.5 271V256L310.5 248.5Z"/>
  </g>
</svg>
