<svg width="735" height="466" viewBox="0 0 735 466" xmlns="http://www.w3.org/2000/svg">
<image href="../src/assets/boulderkarte-original.png" width="735" height="466" preserveAspectRatio="none" />
<g>
<polygon points="4.0,1.0 219.0,1.0 221.0,46.0 178.0,44.0 167.0,39.0 59.0,39.0" fill="rgba(54,181,49,0.10)" stroke="#36B531" stroke-width="2" stroke-dasharray="8 8" />
<polygon points="220.0,2.0 411.0,1.0 411.0,6.0 401.0,49.0 378.0,45.0 362.0,46.0 345.0,71.0 275.0,71.0 260.0,49.0 223.0,47.0" fill="rgba(54,181,49,0.10)" stroke="#36B531" stroke-width="2" stroke-dasharray="8 8" />
<polygon points="402.0,48.0 413.0,1.0 635.0,1.0 635.0,22.0 632.0,26.0 644.0,50.0 644.0,58.0 630.0,83.0 625.0,87.0 578.0,88.0 562.0,94.0" fill="rgba(54,181,49,0.10)" stroke="#36B531" stroke-width="2" stroke-dasharray="8 8" />
<polygon points="1.0,165.0 164.0,162.0 156.0,238.0 2.0,234.0" fill="rgba(54,181,49,0.10)" stroke="#36B531" stroke-width="2" stroke-dasharray="8 8" />
<polygon points="648.0,224.0 649.0,211.0 665.0,211.0 665.0,107.0 687.0,107.0 687.0,225.0" fill="rgba(54,181,49,0.10)" stroke="#36B531" stroke-width="2" stroke-dasharray="8 8" />
<polygon points="157.0,236.0 166.0,162.0 287.0,207.0 287.0,238.0 157.0,238.0" fill="rgba(54,181,49,0.10)" stroke="#36B531" stroke-width="2" stroke-dasharray="8 8" />
<polygon points="456.0,238.0 489.0,176.0 537.0,235.0" fill="rgba(54,181,49,0.10)" stroke="#36B531" stroke-width="2" stroke-dasharray="8 8" />
<polygon points="370.0,220.0 371.0,205.0 383.0,193.0 488.0,175.0 455.0,239.0 370.0,238.0" fill="rgba(54,181,49,0.10)" stroke="#36B531" stroke-width="2" stroke-dasharray="8 8" />
<polygon points="288.0,208.0 369.0,206.0 369.0,238.0 288.0,238.0" fill="rgba(54,181,49,0.10)" stroke="#36B531" stroke-width="2" stroke-dasharray="8 8" />
<polygon points="106.0,239.0 234.0,240.0 229.0,311.0 122.0,271.0 112.0,270.0" fill="rgba(54,181,49,0.10)" stroke="#36B531" stroke-width="2" stroke-dasharray="8 8" />
<polygon points="1.0,236.0 104.0,239.0 111.0,270.0 53.0,267.0 60.0,299.0 52.0,323.0 1.0,312.0" fill="rgba(54,181,49,0.10)" stroke="#36B531" stroke-width="2" stroke-dasharray="8 8" />
<polygon points="311.0,240.0 454.0,241.0 454.0,340.0 430.0,317.0 364.0,328.0 311.0,303.0" fill="rgba(54,181,49,0.10)" stroke="#36B531" stroke-width="2" stroke-dasharray="8 8" />
<polygon points="456.0,241.0 538.0,237.0 533.0,309.0 456.0,341.0" fill="rgba(54,181,49,0.10)" stroke="#36B531" stroke-width="2" stroke-dasharray="8 8" />
<polygon points="223.0,432.0 261.0,407.0 244.0,317.0 231.0,312.0 235.0,240.0 309.0,240.0 309.0,466.0 224.0,465.0" fill="rgba(54,181,49,0.10)" stroke="#36B531" stroke-width="2" stroke-dasharray="8 8" />
<polygon points="1.0,314.0 51.0,324.0 25.0,405.0 83.0,442.0 158.0,444.0 159.0,466.0 1.0,466.0" fill="rgba(54,181,49,0.10)" stroke="#36B531" stroke-width="2" stroke-dasharray="8 8" />
<polygon points="571.0,437.0 709.0,437.0 709.0,350.0 734.0,350.0 734.0,466.0 572.0,466.0" fill="rgba(54,181,49,0.10)" stroke="#36B531" stroke-width="2" stroke-dasharray="8 8" />
<polygon points="313.0,465.0 344.0,444.0 514.0,444.0 514.0,466.0" fill="rgba(54,181,49,0.10)" stroke="#36B531" stroke-width="2" stroke-dasharray="8 8" />
<polygon points="311.0,304.0 363.0,329.0 324.0,407.0 325.0,413.0 343.0,443.0 312.0,465.0" fill="rgba(54,181,49,0.10)" stroke="#36B531" stroke-width="2" stroke-dasharray="8 8" />
<polygon points="1.0,2.0 59.0,40.0 47.0,72.0 40.0,80.0 41.0,164.0 1.0,163.0" fill="rgba(54,181,49,0.10)" stroke="#36B531" stroke-width="2" stroke-dasharray="8 8" />
</g>
</svg>